<svg width="21" height="20" viewBox="0 0 21 20" fill="none" xmlns="http://www.w3.org/2000/svg">
<g id="User">
<path id="Vector" d="M18.7805 16.6408C17.5453 14.5064 15.6062 13.0087 13.3531 12.3736C14.4486 11.8168 15.3245 10.9072 15.8398 9.79162C16.355 8.67604 16.4795 7.41942 16.1933 6.22441C15.907 5.0294 15.2265 3.96563 14.2617 3.20464C13.2968 2.44365 12.1038 2.02979 10.875 2.02979C9.64617 2.02979 8.45315 2.44365 7.48831 3.20464C6.52347 3.96563 5.84304 5.0294 5.55674 6.22441C5.27045 7.41942 5.39497 8.67604 5.91023 9.79162C6.42548 10.9072 7.30145 11.8168 8.39687 12.3736C6.14375 13.008 4.20469 14.5056 2.96953 16.6408C2.93561 16.6941 2.91284 16.7538 2.90258 16.8162C2.89232 16.8786 2.89478 16.9424 2.90983 17.0038C2.92487 17.0652 2.95217 17.1229 2.9901 17.1735C3.02803 17.2241 3.0758 17.2664 3.13053 17.2981C3.18527 17.3297 3.24583 17.35 3.30859 17.3576C3.37135 17.3652 3.435 17.36 3.49572 17.3424C3.55644 17.3248 3.61296 17.2951 3.6619 17.2551C3.71083 17.2151 3.75116 17.1655 3.78047 17.1095C5.28125 14.5166 7.93281 12.9689 10.875 12.9689C13.8172 12.9689 16.4687 14.5166 17.9695 17.1095C17.9988 17.1655 18.0392 17.2151 18.0881 17.2551C18.137 17.2951 18.1936 17.3248 18.2543 17.3424C18.315 17.36 18.3786 17.3652 18.4414 17.3576C18.5042 17.35 18.5647 17.3297 18.6195 17.2981C18.6742 17.2664 18.722 17.2241 18.7599 17.1735C18.7978 17.1229 18.8251 17.0652 18.8402 17.0038C18.8552 16.9424 18.8577 16.8786 18.8474 16.8162C18.8372 16.7538 18.8144 16.6941 18.7805 16.6408ZM6.34375 7.50015C6.34375 6.60395 6.6095 5.72788 7.1074 4.98272C7.6053 4.23756 8.31299 3.65678 9.14096 3.31382C9.96894 2.97086 10.88 2.88113 11.759 3.05597C12.638 3.2308 13.4454 3.66236 14.0791 4.29607C14.7128 4.92978 15.1443 5.73717 15.3192 6.61615C15.494 7.49512 15.4043 8.40621 15.0613 9.23418C14.7184 10.0622 14.1376 10.7698 13.3924 11.2677C12.6473 11.7656 11.7712 12.0314 10.875 12.0314C9.67368 12.03 8.52198 11.5521 7.67252 10.7026C6.82306 9.85317 6.3452 8.70147 6.34375 7.50015Z" fill="#64748B"/>
</g>
</svg>
