<svg width="21" height="20" viewBox="0 0 21 20" fill="none" xmlns="http://www.w3.org/2000/svg">
<g id="_Social icons" clip-path="url(#clip0_115_11)">
<path id="Vector" d="M20.305 10.2304C20.305 9.55059 20.2499 8.86714 20.1323 8.19839H10.7V12.0492H16.1014C15.8773 13.2912 15.1571 14.3898 14.1025 15.088V17.5866H17.325C19.2173 15.8449 20.305 13.2728 20.305 10.2304Z" fill="#4285F4"/>
<path id="Vector_2" d="M10.6999 20.0007C13.397 20.0007 15.6714 19.1152 17.3286 17.5866L14.1061 15.088C13.2096 15.6979 12.0521 16.0433 10.7036 16.0433C8.09474 16.0433 5.88272 14.2833 5.08904 11.9169H1.76367V14.4927C3.46127 17.8695 6.91892 20.0007 10.6999 20.0007Z" fill="#34A853"/>
<path id="Vector_3" d="M5.0854 11.9169C4.66651 10.6749 4.66651 9.33009 5.0854 8.08813V5.51234H1.7637C0.345367 8.33799 0.345367 11.667 1.7637 14.4927L5.0854 11.9169Z" fill="#FBBC04"/>
<path id="Vector_4" d="M10.6999 3.95805C12.1256 3.936 13.5035 4.47247 14.536 5.45722L17.3911 2.60218C15.5833 0.904587 13.1838 -0.0287217 10.6999 0.000673888C6.91892 0.000673888 3.46126 2.13185 1.76367 5.51234L5.08537 8.08813C5.87537 5.71811 8.09106 3.95805 10.6999 3.95805Z" fill="#EA4335"/>
</g>
<defs>
<clipPath id="clip0_115_11">
<rect width="20" height="20" fill="white" transform="translate(0.5)"/>
</clipPath>
</defs>
</svg>
