<svg width="20" height="20" viewBox="0 0 20 20" fill="none" xmlns="http://www.w3.org/2000/svg">
<g id="LockSimple">
<path id="Vector" d="M16.25 6.25012H13.75V4.37512C13.75 3.38056 13.3549 2.42673 12.6517 1.72347C11.9484 1.02021 10.9946 0.625122 10 0.625122C9.00544 0.625122 8.05161 1.02021 7.34835 1.72347C6.64509 2.42673 6.25 3.38056 6.25 4.37512V6.25012H3.75C3.41848 6.25012 3.10054 6.38182 2.86612 6.61624C2.6317 6.85066 2.5 7.1686 2.5 7.50012V16.2501C2.5 16.5816 2.6317 16.8996 2.86612 17.134C3.10054 17.3684 3.41848 17.5001 3.75 17.5001H16.25C16.5815 17.5001 16.8995 17.3684 17.1339 17.134C17.3683 16.8996 17.5 16.5816 17.5 16.2501V7.50012C17.5 7.1686 17.3683 6.85066 17.1339 6.61624C16.8995 6.38182 16.5815 6.25012 16.25 6.25012ZM7.5 4.37512C7.5 3.71208 7.76339 3.0762 8.23223 2.60735C8.70107 2.13851 9.33696 1.87512 10 1.87512C10.663 1.87512 11.2989 2.13851 11.7678 2.60735C12.2366 3.0762 12.5 3.71208 12.5 4.37512V6.25012H7.5V4.37512Z" fill="#1E293B"/>
</g>
</svg>
