<svg width="21" height="20" viewBox="0 0 21 20" fill="none" xmlns="http://www.w3.org/2000/svg">
<g id="BookBookmark">
<path id="Vector" d="M16.875 2.03125H6.25C5.6284 2.03125 5.03226 2.27818 4.59272 2.71772C4.15318 3.15726 3.90625 3.7534 3.90625 4.375V17.5C3.90625 17.6243 3.95564 17.7435 4.04354 17.8315C4.13145 17.9194 4.25068 17.9688 4.375 17.9688H15.625C15.7493 17.9688 15.8685 17.9194 15.9565 17.8315C16.0444 17.7435 16.0938 17.6243 16.0938 17.5C16.0938 17.3757 16.0444 17.2565 15.9565 17.1685C15.8685 17.0806 15.7493 17.0312 15.625 17.0312H4.84375V16.875C4.84375 16.502 4.99191 16.1444 5.25563 15.8806C5.51935 15.6169 5.87704 15.4688 6.25 15.4688H16.875C16.9993 15.4688 17.1185 15.4194 17.2065 15.3315C17.2944 15.2435 17.3438 15.1243 17.3438 15V2.5C17.3438 2.37568 17.2944 2.25645 17.2065 2.16854C17.1185 2.08064 16.9993 2.03125 16.875 2.03125ZM9.84375 2.96875H13.9062V9.0625L12.1555 7.75C12.0743 7.68915 11.9756 7.65625 11.8742 7.65625C11.7728 7.65625 11.6741 7.68915 11.593 7.75L9.84375 9.0625V2.96875ZM16.4062 14.5312H6.25C5.74276 14.5305 5.2491 14.6951 4.84375 15V4.375C4.84375 4.00204 4.99191 3.64435 5.25563 3.38063C5.51935 3.11691 5.87704 2.96875 6.25 2.96875H8.90625V10C8.90625 10.0871 8.93049 10.1724 8.97626 10.2464C9.02202 10.3205 9.08751 10.3803 9.16537 10.4193C9.24323 10.4582 9.3304 10.4747 9.4171 10.4669C9.5038 10.459 9.58661 10.4272 9.65625 10.375L11.875 8.71094L14.0945 10.375C14.1642 10.427 14.2469 10.4586 14.3335 10.4663C14.4201 10.474 14.5071 10.4575 14.5848 10.4186C14.6625 10.3797 14.7279 10.3199 14.7736 10.246C14.8194 10.1721 14.8436 10.0869 14.8438 10V2.96875H16.4062V14.5312Z" fill="#64748B"/>
</g>
</svg>
