<svg width="21" height="20" viewBox="0 0 21 20" fill="none" xmlns="http://www.w3.org/2000/svg">
<g id="Bell">
<path id="Vector" d="M17.568 13.8234C17.1258 13.0625 16.4688 10.9164 16.4688 8.125C16.4688 6.50884 15.8267 4.95887 14.6839 3.81607C13.5411 2.67327 11.9912 2.03125 10.375 2.03125C8.75884 2.03125 7.20887 2.67327 6.06607 3.81607C4.92327 4.95887 4.28125 6.50884 4.28125 8.125C4.28125 10.9172 3.62344 13.0625 3.18125 13.8234C3.08423 13.9896 3.03275 14.1784 3.03201 14.3708C3.03126 14.5631 3.08127 14.7523 3.177 14.9192C3.27272 15.0861 3.41077 15.2248 3.57722 15.3213C3.74366 15.4177 3.93261 15.4686 4.125 15.4688H7.44375C7.55761 16.1636 7.91475 16.7954 8.4514 17.2513C8.98806 17.7072 9.66929 17.9575 10.3734 17.9575C11.0776 17.9575 11.7588 17.7072 12.2955 17.2513C12.8321 16.7954 13.1893 16.1636 13.3031 15.4688H16.625C16.8173 15.4683 17.006 15.4173 17.1722 15.3207C17.3385 15.2241 17.4763 15.0854 17.5718 14.9185C17.6674 14.7517 17.7173 14.5626 17.7164 14.3704C17.7156 14.1781 17.6641 13.9895 17.5672 13.8234H17.568ZM10.375 17.0313C9.9179 17.0311 9.4742 16.8768 9.11567 16.5932C8.75713 16.3097 8.50471 15.9135 8.39922 15.4688H12.3508C12.2453 15.9135 11.9929 16.3097 11.6343 16.5932C11.2758 16.8768 10.8321 17.0311 10.375 17.0313ZM16.7586 14.4531C16.7457 14.4771 16.7265 14.497 16.7031 14.5108C16.6797 14.5245 16.653 14.5316 16.6258 14.5313H4.125C4.09784 14.5316 4.07109 14.5245 4.04767 14.5108C4.02425 14.497 4.00506 14.4771 3.99219 14.4531C3.97848 14.4294 3.97126 14.4024 3.97126 14.375C3.97126 14.3476 3.97848 14.3206 3.99219 14.2969C4.5836 13.2813 5.21875 10.9133 5.21875 8.125C5.21875 6.75748 5.762 5.44597 6.72899 4.47898C7.69597 3.512 9.00748 2.96875 10.375 2.96875C11.7425 2.96875 13.054 3.512 14.021 4.47898C14.988 5.44597 15.5313 6.75748 15.5313 8.125C15.5313 10.9125 16.1672 13.2773 16.7586 14.2969C16.7723 14.3206 16.7795 14.3476 16.7795 14.375C16.7795 14.4024 16.7723 14.4294 16.7586 14.4531Z" fill="#64748B"/>
</g>
</svg>
