<svg width="21" height="20" viewBox="0 0 21 20" fill="none" xmlns="http://www.w3.org/2000/svg">
<g id="BookBookmark">
<path id="Vector" d="M16.875 1.875H6.25C5.58696 1.875 4.95107 2.13839 4.48223 2.60723C4.01339 3.07607 3.75 3.71196 3.75 4.375V17.5C3.75 17.6658 3.81585 17.8247 3.93306 17.9419C4.05027 18.0592 4.20924 18.125 4.375 18.125H15.625C15.7908 18.125 15.9497 18.0592 16.0669 17.9419C16.1842 17.8247 16.25 17.6658 16.25 17.5C16.25 17.3342 16.1842 17.1753 16.0669 17.0581C15.9497 16.9408 15.7908 16.875 15.625 16.875H5C5 16.5435 5.1317 16.2255 5.36612 15.9911C5.60054 15.7567 5.91848 15.625 6.25 15.625H16.875C17.0408 15.625 17.1997 15.5592 17.3169 15.4419C17.4342 15.3247 17.5 15.1658 17.5 15V2.5C17.5 2.33424 17.4342 2.17527 17.3169 2.05806C17.1997 1.94085 17.0408 1.875 16.875 1.875ZM15 9.375L12.9992 7.875C12.9451 7.83443 12.8793 7.8125 12.8117 7.8125C12.7441 7.8125 12.6783 7.83443 12.6242 7.875L10.625 9.375V3.125H15V9.375Z" fill="#2970FF"/>
</g>
</svg>
