<svg width="21" height="20" viewBox="0 0 21 20" fill="none" xmlns="http://www.w3.org/2000/svg">
<g id="User">
<path id="Vector" d="M18.9164 17.1877C18.8615 17.2827 18.7826 17.3616 18.6876 17.4165C18.5925 17.4713 18.4847 17.5002 18.375 17.5002H3.375C3.26534 17.5001 3.15765 17.4711 3.06272 17.4162C2.9678 17.3613 2.88899 17.2824 2.83421 17.1874C2.77944 17.0924 2.75061 16.9847 2.75064 16.875C2.75067 16.7654 2.77955 16.6576 2.83438 16.5627C4.02422 14.5056 5.85781 13.0306 7.99766 12.3314C6.93919 11.7013 6.11683 10.7412 5.65687 9.59845C5.1969 8.45573 5.12475 7.19361 5.45152 6.00592C5.77828 4.81823 6.48588 3.77064 7.46564 3.02402C8.44541 2.2774 9.64318 1.87305 10.875 1.87305C12.1068 1.87305 13.3046 2.2774 14.2844 3.02402C15.2641 3.77064 15.9717 4.81823 16.2985 6.00592C16.6252 7.19361 16.5531 8.45573 16.0931 9.59845C15.6332 10.7412 14.8108 11.7013 13.7523 12.3314C15.8922 13.0306 17.7258 14.5056 18.9156 16.5627C18.9706 16.6576 18.9996 16.7654 18.9998 16.8751C18.9999 16.9848 18.9711 17.0926 18.9164 17.1877Z" fill="#2970FF"/>
</g>
</svg>
