<svg width="21" height="20" viewBox="0 0 21 20" fill="none" xmlns="http://www.w3.org/2000/svg">
<g id="Bell">
<path id="Vector" d="M17.7031 13.7453C17.2695 12.9984 16.625 10.8852 16.625 8.125C16.625 6.4674 15.9665 4.87769 14.7944 3.70558C13.6223 2.53348 12.0326 1.875 10.375 1.875C8.71739 1.875 7.12768 2.53348 5.95558 3.70558C4.78348 4.87769 4.12499 6.4674 4.12499 8.125C4.12499 10.8859 3.47968 12.9984 3.04609 13.7453C2.93536 13.9352 2.87666 14.1509 2.87591 14.3707C2.87515 14.5905 2.93237 14.8066 3.04179 14.9973C3.15121 15.1879 3.30896 15.3463 3.49914 15.4565C3.68932 15.5667 3.90519 15.6248 4.12499 15.625H7.31328C7.45747 16.3306 7.84095 16.9647 8.39885 17.4201C8.95675 17.8756 9.65482 18.1243 10.375 18.1243C11.0952 18.1243 11.7932 17.8756 12.3511 17.4201C12.909 16.9647 13.2925 16.3306 13.4367 15.625H16.625C16.8447 15.6247 17.0605 15.5665 17.2506 15.4562C17.4406 15.346 17.5983 15.1875 17.7076 14.9969C17.8169 14.8063 17.8741 14.5903 17.8733 14.3705C17.8725 14.1508 17.8138 13.9351 17.7031 13.7453ZM10.375 16.875C9.98735 16.8749 9.60928 16.7546 9.29281 16.5308C8.97633 16.3069 8.73702 15.9905 8.60781 15.625H12.1422C12.013 15.9905 11.7737 16.3069 11.4572 16.5308C11.1407 16.7546 10.7626 16.8749 10.375 16.875Z" fill="#2970FF"/>
</g>
</svg>
