<svg width="21" height="20" viewBox="0 0 21 20" fill="none" xmlns="http://www.w3.org/2000/svg">
<g id="Cards">
<path id="Vector" d="M14.5 5.625H3.25C2.55964 5.625 2 6.18464 2 6.875V15.625C2 16.3154 2.55964 16.875 3.25 16.875H14.5C15.1904 16.875 15.75 16.3154 15.75 15.625V6.875C15.75 6.18464 15.1904 5.625 14.5 5.625Z" fill="#2970FF"/>
<path id="Vector_2" d="M17 3.125H5.125C4.95924 3.125 4.80027 3.19085 4.68306 3.30806C4.56585 3.42527 4.5 3.58424 4.5 3.75C4.5 3.91576 4.56585 4.07473 4.68306 4.19194C4.80027 4.30915 4.95924 4.375 5.125 4.375H17V13.75C17 13.9158 17.0658 14.0747 17.1831 14.1919C17.3003 14.3092 17.4592 14.375 17.625 14.375C17.7908 14.375 17.9497 14.3092 18.0669 14.1919C18.1842 14.0747 18.25 13.9158 18.25 13.75V4.375C18.25 4.04348 18.1183 3.72554 17.8839 3.49112C17.6495 3.2567 17.3315 3.125 17 3.125Z" fill="#2970FF"/>
</g>
</svg>
