<svg width="21" height="20" viewBox="0 0 21 20" fill="none" xmlns="http://www.w3.org/2000/svg">
<g id="Cards">
<path id="Vector" d="M14.5 5.78125H3.25C2.95992 5.78125 2.68172 5.89648 2.4766 6.1016C2.27148 6.30672 2.15625 6.58492 2.15625 6.875V15.625C2.15625 15.9151 2.27148 16.1933 2.4766 16.3984C2.68172 16.6035 2.95992 16.7188 3.25 16.7188H14.5C14.7901 16.7188 15.0683 16.6035 15.2734 16.3984C15.4785 16.1933 15.5938 15.9151 15.5938 15.625V6.875C15.5938 6.58492 15.4785 6.30672 15.2734 6.1016C15.0683 5.89648 14.7901 5.78125 14.5 5.78125ZM14.6562 15.625C14.6562 15.6664 14.6398 15.7062 14.6105 15.7355C14.5812 15.7648 14.5414 15.7812 14.5 15.7812H3.25C3.20856 15.7812 3.16882 15.7648 3.13951 15.7355C3.11021 15.7062 3.09375 15.6664 3.09375 15.625V6.875C3.09375 6.83356 3.11021 6.79382 3.13951 6.76451C3.16882 6.73521 3.20856 6.71875 3.25 6.71875H14.5C14.5414 6.71875 14.5812 6.73521 14.6105 6.76451C14.6398 6.79382 14.6562 6.83356 14.6562 6.875V15.625ZM18.0938 4.375V13.75C18.0938 13.8743 18.0444 13.9935 17.9565 14.0815C17.8685 14.1694 17.7493 14.2188 17.625 14.2188C17.5007 14.2188 17.3815 14.1694 17.2935 14.0815C17.2056 13.9935 17.1562 13.8743 17.1562 13.75V4.375C17.1562 4.33356 17.1398 4.29382 17.1105 4.26451C17.0812 4.23521 17.0414 4.21875 17 4.21875H5.125C5.00068 4.21875 4.88145 4.16936 4.79354 4.08146C4.70564 3.99355 4.65625 3.87432 4.65625 3.75C4.65625 3.62568 4.70564 3.50645 4.79354 3.41854C4.88145 3.33064 5.00068 3.28125 5.125 3.28125H17C17.2901 3.28125 17.5683 3.39648 17.7734 3.6016C17.9785 3.80672 18.0938 4.08492 18.0938 4.375Z" fill="#64748B"/>
</g>
</svg>
